<?xml version="1.0" encoding="UTF-8"?>
<svg id="Layer_3" data-name="Layer 3" xmlns="http://www.w3.org/2000/svg" viewBox="0 0 387.09 247.98">
  <defs>
    <style>
      .cls-1 {
        fill: #1b171d;
        stroke-width: 0px;
      }
    </style>
  </defs>
  <g>
    <path class="cls-1" d="M61.74,222.41c-1.01.33-2.05.62-3.13.86-1.08.24-2.21.42-3.41.55-1.2.13-2.48.19-3.84.19-2.9,0-5.57-.31-8.01-.93-2.44-.62-4.54-1.56-6.3-2.81-1.76-1.25-3.13-2.81-4.11-4.68-.98-1.87-1.47-4.06-1.47-6.56s.49-4.69,1.47-6.56c.98-1.87,2.35-3.43,4.11-4.68,1.76-1.25,3.86-2.19,6.3-2.81,2.44-.62,5.11-.93,8.01-.93,1.37,0,2.65.06,3.84.19,1.2.13,2.33.31,3.41.55,1.08.24,2.12.53,3.13.86,1.01.33,2.01.7,3,1.12v6.92c-.79-.43-1.62-.85-2.49-1.27-.87-.42-1.83-.8-2.88-1.14-1.05-.34-2.2-.61-3.46-.83-1.26-.21-2.67-.32-4.25-.32-2.42,0-4.43.25-6.02.75-1.6.5-2.87,1.16-3.82,1.99-.95.83-1.62,1.78-2.01,2.85-.39,1.07-.58,2.18-.58,3.33,0,.76.08,1.51.25,2.25.16.74.44,1.44.83,2.09.39.66.89,1.26,1.51,1.82.62.55,1.4,1.03,2.32,1.43s2.01.71,3.24.94c1.24.23,2.66.34,4.28.34s2.99-.1,4.25-.3,2.41-.47,3.46-.8c1.05-.33,2.01-.71,2.88-1.13.87-.42,1.7-.85,2.49-1.3v6.92c-.99.41-2,.79-3,1.12Z"/>
    <path class="cls-1" d="M95,217.85h-15.88l-2.67,5.39h-8.58l14.9-28.48h8.58l14.9,28.48h-8.58l-2.67-5.39ZM81.88,212.3h10.41l-5.18-10.49-5.23,10.49Z"/>
    <path class="cls-1" d="M110.92,223.24v-28.48h7.69v22.24h20.79v6.24h-28.48Z"/>
    <path class="cls-1" d="M145.56,223.24v-28.48h28.83v6.07h-20.93v4.71h19.86v6.07h-19.86v5.55h21.22v6.07h-29.12Z"/>
    <path class="cls-1" d="M214.58,215.39c0,1.11-.14,2.06-.43,2.88-.29.81-.69,1.52-1.21,2.1-.52.59-1.14,1.06-1.87,1.43-.72.37-1.53.66-2.4.87-.88.21-1.81.36-2.81.45s-2.02.12-3.09.12h-20.67v-28.48h20.29c.81,0,1.63.03,2.45.1.82.07,1.61.2,2.35.38.75.19,1.44.45,2.08.78.64.33,1.2.77,1.68,1.3.48.54.85,1.19,1.12,1.95.27.76.4,1.66.4,2.69,0,1.85-.46,3.32-1.37,4.4s-2.35,1.81-4.31,2.17c1.38.1,2.57.31,3.56.63.99.32,1.79.77,2.41,1.33.62.56,1.08,1.24,1.37,2.05s.43,1.75.43,2.83ZM204.98,203.2c0-.36-.06-.7-.16-1.03-.11-.32-.31-.61-.6-.86-.29-.25-.68-.45-1.18-.6-.5-.15-1.13-.23-1.91-.23h-11.34v5.35h11.34c.77,0,1.41-.07,1.91-.21.5-.14.89-.33,1.18-.56.29-.23.49-.51.6-.84.11-.32.16-.67.16-1.02ZM206.76,214.5c0-.65-.11-1.17-.33-1.57-.22-.39-.57-.7-1.04-.91-.47-.21-1.08-.36-1.82-.42s-1.64-.1-2.67-.1h-11.11v6.03h11.11c1.04,0,1.93-.04,2.67-.1s1.35-.22,1.82-.43c.47-.22.82-.53,1.04-.92.22-.39.33-.92.33-1.56Z"/>
    <path class="cls-1" d="M253.51,200.96v22.28h-7.69v-22.28h-12.08v-6.2h31.88v6.2h-12.1Z"/>
    <path class="cls-1" d="M296.93,202.79c-.54-.26-1.25-.56-2.14-.89s-1.89-.65-3-.94c-1.12-.3-2.34-.55-3.65-.75s-2.66-.3-4.04-.3c-1.1,0-2.05.04-2.83.1-.78.07-1.44.16-1.97.27-.53.11-.95.24-1.27.38s-.55.29-.71.45c-.17.15-.27.3-.32.46-.05.15-.07.29-.07.42,0,.41.21.78.62,1.09.41.31.98.59,1.7.83.72.24,1.56.47,2.51.68.95.21,1.97.43,3.04.66,1.07.23,2.18.48,3.32.75,1.14.27,2.24.58,3.32.94,1.07.36,2.08.78,3.04,1.26.95.48,1.79,1.03,2.51,1.67.72.64,1.28,1.37,1.7,2.2.42.83.62,1.78.62,2.84,0,1.37-.24,2.54-.72,3.52-.48.98-1.13,1.81-1.94,2.49-.81.68-1.75,1.22-2.81,1.63-1.06.41-2.18.72-3.35.94s-2.35.37-3.54.43c-1.2.07-2.33.1-3.41.1-2.82,0-5.43-.23-7.82-.69s-4.52-1.04-6.35-1.73v-6.8c1.89,1.05,4.05,1.87,6.48,2.47s5.02.89,7.78.89c1.63,0,2.96-.09,3.99-.26s1.83-.39,2.41-.66c.58-.27.98-.56,1.18-.88s.31-.62.31-.91c0-.46-.21-.85-.62-1.19-.42-.34-.98-.64-1.7-.89-.72-.26-1.55-.49-2.51-.71-.95-.21-1.97-.43-3.04-.64-1.07-.22-2.17-.45-3.31-.69-1.13-.25-2.24-.54-3.31-.88-1.07-.34-2.08-.73-3.04-1.18-.95-.45-1.79-.98-2.51-1.6-.72-.61-1.28-1.33-1.7-2.14-.41-.81-.62-1.74-.62-2.81,0-1.26.22-2.34.66-3.25.44-.91,1.04-1.69,1.79-2.33.75-.64,1.62-1.16,2.61-1.56.99-.4,2.03-.71,3.12-.93,1.09-.22,2.2-.37,3.32-.46s2.18-.12,3.19-.12c1.1,0,2.24.06,3.41.17s2.32.27,3.45.46c1.13.2,2.23.43,3.29.69,1.06.26,2.04.54,2.93.83v6.59Z"/>
    <path class="cls-1" d="M329.45,217.85h-15.88l-2.67,5.39h-8.58l14.9-28.48h8.58l14.9,28.48h-8.58l-2.67-5.39ZM316.33,212.3h10.41l-5.18-10.49-5.23,10.49Z"/>
    <path class="cls-1" d="M345.37,223.24v-28.48h7.69v28.48h-7.69Z"/>
  </g>
  <g>
    <polygon class="cls-1" points="91.53 141.46 91.53 150.46 188.27 150.46 188.27 183.23 17.93 183.23 17.93 23.97 188.27 23.97 188.27 141.46 91.53 141.46"/>
    <rect class="cls-1" x="198.81" y="23.97" width="170.34" height="117.48"/>
    <rect class="cls-1" x="289.37" y="150.46" width="79.78" height="32.77"/>
    <rect class="cls-1" x="198.93" y="150.46" width="79.78" height="32.77"/>
  </g>
</svg>